<svg version="1.1" id="Layer_1" xmlns="http://www.w3.org/2000/svg" xmlns:xlink="http://www.w3.org/1999/xlink" x="0px" y="0px"
	 width="100%" viewBox="0 0 200 200" enable-background="new 0 0 200 200" xml:space="preserve">
<path fill="#000000" opacity="1.000000" stroke="none" 
	d="
M111.000000,1.000000 
	C140.965958,1.000000 170.931931,1.000000 200.948944,1.000000 
	C200.948944,67.556961 200.948944,134.113968 200.948944,201.000000 
	C169.313202,201.000000 137.625259,201.000000 105.168449,200.775696 
	C104.869423,199.989471 105.339256,199.427536 106.201584,198.917267 
	C111.195213,197.053986 115.682678,194.770691 120.423279,193.307648 
	C128.146088,190.924255 132.191132,185.938644 132.895905,177.549530 
	C132.992554,173.781326 133.020874,170.464340 133.393677,167.109604 
	C135.461884,168.067841 137.185623,169.063843 138.953613,170.484772 
	C137.823837,176.159286 136.649796,181.408859 135.207657,187.857239 
	C142.954712,184.311707 150.045258,181.066635 157.493591,177.881210 
	C159.814102,177.244781 161.776855,176.548691 164.047394,175.893158 
	C164.592361,175.628540 164.829544,175.323364 165.033417,175.023529 
	C165.000107,175.028870 165.034241,175.087280 165.419373,175.049118 
	C171.299072,172.772324 176.746460,170.407822 182.300217,168.327286 
	C189.052643,165.797699 190.444351,160.247269 190.907288,153.548706 
	C190.989914,140.756241 191.052582,128.429138 190.916763,116.104195 
	C190.902298,114.790794 189.727478,113.490166 188.724014,112.197418 
	C182.256393,114.863014 176.155701,117.514793 169.614105,120.112320 
	C168.781662,121.317490 168.058243,122.574722 168.049896,123.836662 
	C167.965363,136.631485 167.997574,149.427063 167.969330,162.381073 
	C167.941605,162.539734 167.884674,162.856766 167.533493,162.898300 
	C165.495819,162.302521 163.809341,161.665222 162.057266,160.561569 
	C161.996140,145.809418 161.964935,131.523392 162.051575,117.238091 
	C162.062027,115.513496 162.709503,113.792778 163.299377,112.026344 
	C163.537018,111.982430 163.997086,111.834312 164.363647,111.787750 
	C173.148392,108.210434 181.566544,104.679688 190.376068,100.930206 
	C190.793716,90.808907 190.819992,80.906334 190.904602,70.750732 
	C190.919342,70.329346 190.875732,70.160980 190.902222,69.650986 
	C190.692230,68.510948 190.412155,67.712555 190.093781,66.575462 
	C189.738312,65.476707 189.421158,64.716652 189.062469,63.586075 
	C188.955826,62.475327 188.890732,61.735096 188.823730,60.682495 
	C188.262924,59.568069 187.703995,58.766022 187.087662,57.614815 
	C186.389664,56.162521 185.749084,55.059387 185.056992,53.651123 
	C184.700531,52.883568 184.395569,52.421139 184.041046,51.606148 
	C182.341278,49.135571 180.691086,47.017551 179.026794,44.566380 
	C178.357971,43.424774 177.703278,42.616325 176.926178,41.505791 
	C175.548187,40.429310 174.292618,39.654915 172.924530,38.576851 
	C171.886124,37.789593 170.960251,37.306011 169.884338,36.510178 
	C167.508987,35.084282 165.283646,33.970638 162.903656,32.541988 
	C159.782730,30.673357 156.816437,29.119728 153.642548,27.258776 
	C140.696976,19.642719 127.933830,12.377112 115.252060,4.972114 
	C113.618538,4.018286 112.407013,2.341753 111.000000,1.000000 
z"/>
<path fill="#000000" opacity="1.000000" stroke="none" 
	d="
M91.000000,201.000000 
	C61.033939,201.000000 31.067879,201.000000 1.050908,201.000000 
	C1.050908,134.442719 1.050908,67.885399 1.050908,1.000000 
	C33.020149,1.000000 65.041412,1.000000 97.826942,1.305596 
	C93.113487,4.120036 87.635765,6.628880 81.787781,9.175533 
	C73.753235,11.942000 70.160027,16.257120 70.024757,23.058325 
	C69.939857,27.327486 69.987938,31.599293 69.635063,35.806755 
	C65.134018,33.277946 60.913597,30.908117 56.829815,28.322479 
	C51.680149,25.061975 46.718452,22.512281 40.340553,25.712795 
	C35.177662,28.303598 29.560596,29.989338 23.783951,32.134010 
	C16.486784,34.728024 11.641985,38.850620 12.094053,47.269814 
	C12.027121,47.498508 12.107689,47.968231 12.031586,48.433472 
	C11.994196,71.930901 12.032910,94.963097 12.008419,118.429398 
	C11.986467,120.907761 12.027721,122.952011 12.007331,125.399796 
	C12.004109,126.886047 12.062533,127.968765 12.068898,129.413361 
	C12.057968,130.501816 12.099097,131.228409 12.087001,132.300171 
	C12.073208,133.107590 12.112641,133.569824 12.146168,134.294098 
	C12.407480,134.773651 12.674699,134.991180 12.941872,135.411255 
	C12.941825,135.613815 13.035652,136.007919 12.975432,136.335861 
	C12.968041,137.102432 13.020871,137.541046 13.043564,138.358887 
	C14.578888,142.189575 16.144350,145.641083 17.790058,149.446503 
	C19.554695,152.268936 21.239082,154.737427 23.073956,157.487457 
	C24.796911,159.216263 26.369383,160.663513 28.089783,162.422226 
	C30.809814,164.195068 33.381920,165.656433 36.121044,167.422180 
	C43.785969,172.153534 51.223835,176.686493 58.798252,180.978455 
	C66.778526,185.500397 74.889244,189.792130 83.105736,194.486511 
	C85.490341,195.909103 87.712181,197.029633 90.106110,198.466644 
	C90.518799,199.522064 90.759399,200.261032 91.000000,201.000000 
z"/>
<path fill="#2da676" opacity="1.000000" stroke="none" 
	d="
M82.158051,9.137724 
	C87.635765,6.628880 93.113487,4.120036 98.295601,1.305596 
	C102.024544,1.000000 106.049088,1.000000 110.536819,1.000000 
	C112.407013,2.341753 113.618538,4.018286 115.252060,4.972114 
	C127.933830,12.377112 140.696976,19.642719 153.215637,27.353798 
	C146.290024,30.846167 139.583725,33.936184 132.557343,36.885521 
	C129.261368,35.104137 126.243454,33.534702 123.317200,31.809784 
	C113.281647,25.894218 103.278236,19.924145 93.138626,13.667168 
	C92.705635,13.053190 92.396599,12.746895 91.837662,12.205332 
	C88.444519,11.025950 85.301285,10.081838 82.158051,9.137724 
z"/>
<path fill="#2da676" opacity="1.000000" stroke="none" 
	d="
M91.464645,201.000000 
	C90.759399,200.261032 90.518799,199.522064 90.327179,198.197144 
	C96.704300,194.751297 103.032448,191.891388 109.361923,189.371796 
	C108.178535,192.763290 106.993813,195.814453 105.809097,198.865616 
	C105.339256,199.427536 104.869423,199.989471 104.699791,200.775696 
	C100.643097,201.000000 96.286201,201.000000 91.464645,201.000000 
z"/>
<path fill="#2da676" opacity="1.000000" stroke="none" 
	d="
M106.201584,198.917267 
	C106.993813,195.814453 108.178535,192.763290 109.507362,189.073608 
	C109.690186,187.999451 109.728889,187.563843 109.868805,186.653381 
	C109.931404,174.849411 109.892799,163.520264 109.914963,151.748123 
	C108.816238,145.468124 111.761955,142.692169 117.059769,141.265106 
	C119.157379,140.700104 121.010902,139.228943 123.360260,138.101685 
	C126.166679,137.413177 128.588409,136.793381 131.008057,136.591217 
	C131.356598,139.354645 131.707199,141.700439 132.115555,144.509155 
	C132.125961,151.990906 132.078613,159.009750 131.770996,166.340378 
	C131.949661,170.435028 132.388626,174.217896 132.827576,178.000748 
	C132.191132,185.938644 128.146088,190.924255 120.423279,193.307648 
	C115.682678,194.770691 111.195213,197.053986 106.201584,198.917267 
z"/>
<path fill="#2da676" opacity="1.000000" stroke="none" 
	d="
M167.884674,162.856766 
	C167.884674,162.856766 167.941605,162.539734 168.201202,162.112106 
	C168.663315,160.768723 168.865814,159.852951 169.307846,158.608994 
	C169.698257,151.803101 169.989288,145.324509 169.947815,138.848053 
	C169.922653,134.919571 169.383148,130.994385 169.046768,126.664719 
	C169.364227,124.230003 169.709610,122.198288 170.055023,120.166580 
	C176.155701,117.514793 182.256393,114.863014 188.915024,112.556046 
	C189.660126,124.345909 189.810898,135.791763 190.065399,147.235321 
	C190.115753,149.499664 190.564789,151.755142 190.829971,154.014709 
	C190.444351,160.247269 189.052643,165.797699 182.300217,168.327286 
	C176.746460,170.407822 171.299072,172.772324 165.280060,174.685883 
	C165.492813,172.237030 166.230042,170.113266 167.130402,167.648911 
	C167.490585,165.824478 167.687637,164.340622 167.884674,162.856766 
z"/>
<path fill="#2da676" opacity="1.000000" stroke="none" 
	d="
M157.135803,177.821564 
	C150.045258,181.066635 142.954712,184.311707 135.207657,187.857239 
	C136.649796,181.408859 137.823837,176.159286 139.057068,170.022125 
	C139.077896,161.276245 139.039520,153.417953 138.987305,145.472885 
	C138.973450,145.386124 139.112411,145.278534 139.352295,144.922577 
	C139.768677,141.715073 139.945190,138.863495 140.469177,135.945587 
	C147.531326,133.587662 154.245972,131.296082 160.983688,129.472382 
	C161.182098,140.348541 161.357437,150.756775 161.521423,161.504761 
	C161.465500,163.889938 161.420929,165.935379 161.237656,168.329315 
	C159.777908,171.725754 158.456863,174.773651 157.135803,177.821564 
z"/>
<path fill="#2da676" opacity="1.000000" stroke="none" 
	d="
M189.984695,101.148941 
	C181.566544,104.679688 173.148392,108.210434 164.227631,111.447914 
	C161.706238,110.878380 159.374100,109.809174 157.722366,110.461861 
	C150.200592,113.434105 142.849808,116.847015 135.516586,120.270729 
	C135.026443,120.499557 135.190582,122.129761 134.874786,123.428375 
	C127.828049,126.533127 120.956932,129.317673 113.731384,132.061401 
	C112.909973,132.100296 112.442978,132.180008 111.658813,132.167145 
	C110.857697,131.406891 110.373749,130.739212 109.962524,129.614990 
	C110.128746,126.109749 110.222229,123.061089 110.707886,120.010399 
	C112.719498,119.726967 114.448120,119.718903 115.941643,119.122307 
	C132.839233,112.372543 149.642395,105.382423 166.598541,98.784897 
	C174.234604,95.813759 182.156708,93.577736 189.975098,91.464722 
	C189.995682,94.997162 189.990189,98.073051 189.984695,101.148941 
z"/>
<path  fill="#2da676" opacity="1.000000" stroke="none" 
	d="
M189.104004,63.956593 
	C189.421158,64.716652 189.738312,65.476707 189.866776,66.781265 
	C189.784988,68.216949 189.891876,69.108131 189.999313,70.252731 
	C190.000992,70.675087 190.002121,70.844032 189.997345,71.457047 
	C189.973740,74.272247 189.956070,76.643379 189.525787,79.008705 
	C181.150269,80.445992 173.268997,82.048416 168.138214,89.297028 
	C168.061310,89.405663 167.319244,89.043465 167.061096,88.542831 
	C167.209213,84.124084 167.183823,80.063530 167.351303,75.799652 
	C167.704330,75.066750 167.864471,74.537170 168.419861,74.001968 
	C173.537872,72.332771 178.381470,70.938164 182.933228,68.893814 
	C185.259964,67.848785 187.063812,65.639603 189.104004,63.956593 
z"/>
<path  fill="#2da676" opacity="1.000000" stroke="none" 
	d="
M132.877426,37.026207 
	C139.583725,33.936184 146.290024,30.846167 153.423248,27.661125 
	C156.816437,29.119728 159.782730,30.673357 162.533600,32.582775 
	C161.117752,33.474258 159.927002,34.033001 158.715256,34.541733 
	C152.760147,37.041885 146.799454,39.528751 140.489288,42.015438 
	C137.717697,40.349113 135.297562,38.687660 132.877426,37.026207 
z"/>
<path  fill="#2da676" opacity="1.000000" stroke="none" 
	d="
M135.050415,123.108170 
	C135.190582,122.129761 135.026443,120.499557 135.516586,120.270729 
	C142.849808,116.847015 150.200592,113.434105 157.722366,110.461861 
	C159.374100,109.809174 161.706238,110.878380 163.861053,111.494476 
	C163.997086,111.834312 163.537018,111.982430 162.927002,112.095657 
	C161.824692,113.856216 161.332397,115.503555 160.654205,117.330719 
	C160.317474,118.005905 160.166672,118.501266 159.647202,119.057365 
	C152.896729,121.417236 146.514908,123.716370 140.094116,125.680588 
	C139.666870,124.244141 139.278625,123.142624 138.545166,122.026474 
	C137.150085,122.377281 136.100250,122.742729 135.050415,123.108170 
z"/>
<path  fill="#2da676" opacity="1.000000" stroke="none" 
	d="
M140.840744,42.020309 
	C146.799454,39.528751 152.760147,37.041885 158.715256,34.541733 
	C159.927002,34.033001 161.117752,33.474258 162.688263,32.897781 
	C165.283646,33.970638 167.508987,35.084282 169.715363,36.825630 
	C165.715256,39.378822 161.633011,41.125774 157.792740,43.300049 
	C155.656952,44.509277 153.924469,46.430801 151.751297,48.049355 
	C151.319412,48.071732 151.146439,48.076057 150.609131,48.051826 
	C147.110107,46.022282 143.975418,44.021294 140.840744,42.020309 
z"/>
<path  fill="#2da676" opacity="1.000000" stroke="none" 
	d="
M179.040909,44.899536 
	C180.691086,47.017551 182.341278,49.135571 183.641632,51.617474 
	C179.130585,53.483109 174.902695,54.826275 170.830017,56.538605 
	C167.770370,57.825016 164.910080,59.585617 161.639709,60.996628 
	C159.835999,58.582947 158.353638,56.307755 157.223328,53.883492 
	C164.730560,50.789459 171.885742,47.844498 179.040909,44.899536 
z"/>
<path  fill="#2da676" opacity="1.000000" stroke="none" 
	d="
M139.001160,145.559647 
	C139.039520,153.417953 139.077896,161.276245 139.012817,169.597198 
	C137.185623,169.063843 135.461884,168.067841 133.194336,166.950714 
	C132.444107,166.562592 132.237686,166.295578 132.031265,166.028580 
	C132.078613,159.009750 132.125961,151.990906 132.304733,144.351562 
	C132.436172,143.731064 132.820648,143.423477 133.124146,143.665161 
	C135.285492,144.457794 137.143326,145.008713 139.001160,145.559647 
z"/>
<path  fill="#2da676" opacity="1.000000" stroke="none" 
	d="
M189.062469,63.586075 
	C187.063812,65.639603 185.259964,67.848785 182.933228,68.893814 
	C178.381470,70.938164 173.537872,72.332771 168.275848,73.700722 
	C166.874741,72.264954 166.012878,71.124809 165.094604,69.731415 
	C165.083099,69.311150 165.128036,69.144127 165.359192,68.973221 
	C165.545395,68.969337 165.917664,68.956520 166.308090,68.951965 
	C174.074219,66.296562 181.449921,63.645714 188.825623,60.994865 
	C188.890732,61.735096 188.955826,62.475327 189.062469,63.586075 
z"/>
<path  fill="#2da676" opacity="1.000000" stroke="none" 
	d="
M173.037033,38.880524 
	C174.292618,39.654915 175.548187,40.429310 176.715912,41.787914 
	C169.747513,45.255238 162.866989,48.138351 155.633636,51.012970 
	C154.809326,51.014523 154.337860,51.024563 153.620941,50.966286 
	C153.215286,50.608932 153.055069,50.319904 153.095642,49.902061 
	C153.558441,49.584137 153.764069,49.346291 154.228333,48.880081 
	C156.023285,48.066982 157.566589,47.549072 158.971649,46.778957 
	C163.686691,44.194649 168.352432,41.520363 173.037033,38.880524 
z"/>
<path  fill="#2da676" opacity="1.000000" stroke="none" 
	d="
M161.961044,61.135109 
	C164.910080,59.585617 167.770370,57.825016 170.830017,56.538605 
	C174.902695,54.826275 179.130585,53.483109 183.691208,51.970032 
	C184.395569,52.421139 184.700531,52.883568 184.730225,53.803226 
	C178.529861,56.818974 172.568085,59.298862 166.720734,62.024204 
	C165.882584,62.414852 165.596893,63.990849 165.050385,65.401802 
	C165.005203,66.551277 164.965134,67.317223 164.607758,67.916702 
	C163.513992,65.545197 162.737518,63.340153 161.961044,61.135109 
z"/>
<path  fill="#2da676" opacity="1.000000" stroke="none" 
	d="
M164.925064,68.083168 
	C164.965134,67.317223 165.005203,66.551277 165.455368,65.397545 
	C172.958679,62.661163 180.051880,60.312569 187.145081,57.963974 
	C187.703995,58.766022 188.262924,59.568069 188.823730,60.682495 
	C181.449921,63.645714 174.074219,66.296562 166.173492,68.758240 
	C165.414581,68.351837 165.157806,68.166275 164.912415,68.015137 
	C164.946655,68.017891 164.925064,68.083168 164.925064,68.083168 
z"/>
<path  fill="#2da676" opacity="1.000000" stroke="none" 
	d="
M187.087662,57.614815 
	C180.051880,60.312569 172.958679,62.661163 165.460510,65.014015 
	C165.596893,63.990849 165.882584,62.414852 166.720734,62.024204 
	C172.568085,59.298862 178.529861,56.818974 184.781738,54.108356 
	C185.749084,55.059387 186.389664,56.162521 187.087662,57.614815 
z"/>
<path  fill="#2da676" opacity="1.000000" stroke="none" 
	d="
M172.924530,38.576847 
	C168.352432,41.520363 163.686691,44.194649 158.971649,46.778957 
	C157.566589,47.549072 156.023285,48.066982 153.882507,49.055466 
	C153.006866,49.555725 152.792053,49.700970 152.420959,49.818451 
	C152.264679,49.790680 152.180313,49.484619 152.257172,49.236603 
	C152.226074,48.669491 152.118149,48.350395 152.010223,48.031300 
	C153.924469,46.430801 155.656952,44.509277 157.792740,43.300049 
	C161.633011,41.125774 165.715256,39.378822 169.865387,37.137886 
	C170.960251,37.306011 171.886124,37.789593 172.924530,38.576847 
z"/>
<path  fill="#2da676" opacity="1.000000" stroke="none" 
	d="
M155.986465,51.021465 
	C162.866989,48.138351 169.747513,45.255238 176.838303,42.090004 
	C177.703278,42.616325 178.357971,43.424774 179.026794,44.566376 
	C171.885742,47.844498 164.730560,50.789459 156.992477,53.828392 
	C156.112457,53.739662 155.962311,53.473923 155.973022,52.774326 
	C155.986771,51.956161 155.986618,51.488815 155.986465,51.021465 
z"/>
<path  fill="#2da676" opacity="1.000000" stroke="none" 
	d="
M157.493591,177.881210 
	C158.456863,174.773651 159.777908,171.725754 161.631134,168.333130 
	C163.764633,167.988770 165.365952,167.989136 166.967270,167.989487 
	C166.230042,170.113266 165.492813,172.237030 164.894913,174.724045 
	C165.034241,175.087280 165.000107,175.028870 164.746429,175.013824 
	C164.241684,175.283386 163.990646,175.568008 163.739594,175.852615 
	C161.776855,176.548691 159.814102,177.244781 157.493591,177.881210 
z"/>
<path  fill="#2da676" opacity="1.000000" stroke="none" 
	d="
M160.840103,117.150887 
	C161.332397,115.503555 161.824692,113.856216 162.689362,112.139572 
	C162.709503,113.792778 162.062027,115.513496 162.051575,117.238091 
	C161.964935,131.523392 161.996140,145.809418 161.903046,160.567581 
	C161.814407,161.039948 161.532791,161.165024 161.532776,161.165024 
	C161.357437,150.756775 161.182098,140.348541 161.009949,129.016769 
	C160.956589,125.046280 160.900040,121.999313 160.870026,118.651901 
	C160.877747,117.951263 160.858917,117.551071 160.840103,117.150887 
z"/>
<path  fill="#2da676" opacity="1.000000" stroke="none" 
	d="
M169.068298,158.937195 
	C168.865814,159.852951 168.663315,160.768723 168.228928,161.953461 
	C167.997574,149.427063 167.965363,136.631485 168.049896,123.836662 
	C168.058243,122.574722 168.781662,121.317490 169.614105,120.112328 
	C169.709610,122.198288 169.364227,124.230003 169.022980,127.125488 
	C169.040863,138.305237 169.054581,148.621216 169.068298,158.937195 
z"/>
<path  fill="#2da676" opacity="1.000000" stroke="none" 
	d="
M190.907288,153.548706 
	C190.564789,151.755142 190.115753,149.499664 190.065399,147.235321 
	C189.810898,135.791763 189.660126,124.345909 189.281967,112.542236 
	C189.727478,113.490166 190.902298,114.790794 190.916763,116.104195 
	C191.052582,128.429138 190.989914,140.756241 190.907288,153.548706 
z"/>
<path  fill="#2da676" opacity="1.000000" stroke="none" 
	d="
M161.521439,161.504761 
	C161.532791,161.165024 161.814407,161.039948 161.968628,161.033936 
	C163.809341,161.665222 165.495819,162.302521 167.533508,162.898300 
	C167.687637,164.340622 167.490585,165.824478 167.130402,167.648911 
	C165.365952,167.989136 163.764633,167.988770 161.769836,167.984619 
	C161.420929,165.935379 161.465500,163.889938 161.521439,161.504761 
z"/>
<path  fill="#2da676" opacity="1.000000" stroke="none" 
	d="
M189.938400,79.014511 
	C189.956070,76.643379 189.973740,74.272247 190.207947,71.447479 
	C190.424484,70.993835 190.846283,71.003769 190.846283,71.003769 
	C190.819992,80.906334 190.793716,90.808907 190.376068,100.930206 
	C189.990189,98.073051 189.995682,94.997162 190.005432,91.004166 
	C189.985947,86.396202 189.962173,82.705360 189.938400,79.014511 
z"/>
<path  fill="#2da676" opacity="1.000000" stroke="none" 
	d="
M131.770996,166.340378 
	C132.237686,166.295578 132.444107,166.562592 132.849854,166.988480 
	C133.020874,170.464340 132.992554,173.781326 132.895905,177.549530 
	C132.388626,174.217896 131.949661,170.435028 131.770996,166.340378 
z"/>
<path  fill="#2da676" opacity="1.000000" stroke="none" 
	d="
M189.998764,69.999313 
	C189.891876,69.108131 189.784988,68.216949 189.905090,67.119965 
	C190.412155,67.712555 190.692230,68.510948 190.694092,69.653999 
	C190.415878,69.998650 189.998764,69.999313 189.998764,69.999313 
z"/>
<path  fill="#8A8A8B" opacity="1.000000" stroke="none" 
	d="
M164.047394,175.893158 
	C163.990646,175.568008 164.241684,175.283386 164.779724,175.008484 
	C164.829544,175.323364 164.592361,175.628540 164.047394,175.893158 
z"/>
<path  fill="#2da676" opacity="1.000000" stroke="none" 
	d="
M189.999313,70.252731 
	C189.998764,69.999313 190.415878,69.998650 190.624008,69.995636 
	C190.875732,70.160980 190.919342,70.329346 190.904602,70.750732 
	C190.846283,71.003769 190.424484,70.993835 190.213867,71.003403 
	C190.002121,70.844032 190.000992,70.675087 189.999313,70.252731 
z"/>
<path  fill="#8A8A8B" opacity="1.000000" stroke="none" 
	d="
M12.071625,117.995293 
	C12.032910,94.963097 11.994196,71.930901 12.148375,48.340588 
	C12.516553,47.504215 12.456459,47.257095 12.160986,47.041115 
	C11.641985,38.850620 16.486784,34.728024 24.023668,32.393234 
	C27.418758,33.443581 30.213093,34.292183 33.045128,35.398628 
	C33.354179,36.085407 33.625526,36.514343 33.936249,37.414040 
	C33.990711,60.079166 34.021198,82.273544 33.999245,104.467865 
	C33.996803,106.937225 33.695854,109.406296 33.132084,111.941917 
	C25.844423,114.003990 18.958025,115.999641 12.071625,117.995293 
z"/>
<path   fill="#8A8A8B" opacity="1.000000" stroke="none" 
	d="
M82.942970,194.184448 
	C74.889244,189.792130 66.778526,185.500397 58.798252,180.978455 
	C51.223835,176.686493 43.785969,172.153534 36.151279,167.046387 
	C37.682846,165.075073 39.280525,163.677368 41.033863,162.514359 
	C45.002304,159.882065 49.047512,157.365509 53.370354,154.986008 
	C64.240219,161.101852 74.855316,166.940125 85.337654,173.007751 
	C90.042213,175.730942 94.481102,178.913071 99.026787,182.274384 
	C98.981255,185.561234 97.749229,186.757523 94.657410,186.425766 
	C87.852722,185.695648 85.807167,187.170074 82.942970,194.184448 
z"/>
<path fill="#2da676" opacity="1.000000" stroke="none" 
	d="
M33.007427,35.140785 
	C30.213093,34.292183 27.418758,33.443581 24.384705,32.335754 
	C29.560596,29.989338 35.177662,28.303598 40.340553,25.712795 
	C46.718452,22.512281 51.680149,25.061975 56.829815,28.322479 
	C60.913597,30.908117 65.134018,33.277946 69.944183,35.973595 
	C77.700073,40.192326 84.805542,44.181061 92.076614,48.373711 
	C92.569122,48.701534 92.896049,48.825443 93.430099,49.004696 
	C93.907791,49.225712 94.038689,49.467121 93.804268,50.061188 
	C86.997360,53.259830 80.416115,56.181541 73.544350,59.031929 
	C72.522331,58.648979 71.790817,58.337357 70.935600,57.853294 
	C70.619476,57.448555 70.372528,57.329010 69.720764,57.191597 
	C57.970242,50.376331 46.570000,43.691681 35.062317,36.740143 
	C34.669678,36.234734 34.384476,35.996204 33.968330,35.578339 
	C33.595268,35.201870 33.318615,35.115799 33.007427,35.140785 
z"/>
<path fill="#8A8A8B" opacity="1.000000" stroke="none" 
	d="
M91.911018,48.169796 
	C84.805542,44.181061 77.700073,40.192326 70.285477,36.036751 
	C69.987938,31.599293 69.939857,27.327486 70.024757,23.058325 
	C70.160027,16.257120 73.753235,11.942000 81.787781,9.175533 
	C85.301285,10.081838 88.444519,11.025950 91.821457,12.719186 
	C92.007111,25.035471 91.959068,36.602634 91.911018,48.169796 
z"/>
<path fill="#8A8A8B" opacity="1.000000" stroke="none" 
	d="
M13.035651,136.007919 
	C13.035652,136.007919 12.941825,135.613815 12.850637,135.189392 
	C12.616728,134.471161 12.414269,134.226868 12.152075,134.032074 
	C12.112641,133.569824 12.073208,133.107590 12.286724,132.312454 
	C12.539673,131.979568 12.939692,131.967346 13.351585,131.973801 
	C20.894857,129.307465 28.026237,126.634689 35.468658,124.191414 
	C37.490341,129.949066 39.200985,135.477219 40.516853,141.005310 
	C36.725849,142.140381 33.304947,143.207458 29.939707,144.428009 
	C25.838615,145.915436 21.784336,147.531921 17.709812,149.092575 
	C16.144350,145.641083 14.578888,142.189575 13.228909,138.197021 
	C13.308146,137.106613 13.171898,136.557266 13.035651,136.007919 
z"/>
<path fill="#8A8A8B" opacity="1.000000" stroke="none" 
	d="
M83.105736,194.486511 
	C85.807167,187.170074 87.852722,185.695648 94.657410,186.425766 
	C97.749229,186.757523 98.981255,185.561234 99.393517,182.321320 
	C102.551392,183.373474 105.328781,184.766129 108.238037,186.373230 
	C108.835793,186.767883 109.301697,186.948044 109.767593,187.128220 
	C109.728889,187.563843 109.690186,187.999451 109.506035,188.733276 
	C103.032448,191.891388 96.704300,194.751297 90.155075,197.880692 
	C87.712181,197.029633 85.490341,195.909103 83.105736,194.486511 
z"/>
<path fill="#8A8A8B" opacity="1.000000" stroke="none" 
	d="
M17.790058,149.446503 
	C21.784336,147.531921 25.838615,145.915436 29.939707,144.428009 
	C33.304947,143.207458 36.725849,142.140381 40.652004,141.314850 
	C42.435074,143.417313 43.688217,145.210205 44.568718,147.014435 
	C37.841251,149.402328 31.452686,151.695602 25.166595,154.241837 
	C24.180473,154.641266 23.659513,156.189102 22.923470,157.205917 
	C21.239082,154.737427 19.554695,152.268936 17.790058,149.446503 
z"/>
<path fill="#8A8A8B" opacity="1.000000" stroke="none" 
	d="
M53.061501,154.801895 
	C49.047512,157.365509 45.002304,159.882065 41.033863,162.514359 
	C39.280525,163.677368 37.682846,165.075073 35.984261,166.742020 
	C33.381920,165.656433 30.809814,164.195068 28.244316,162.097137 
	C29.036518,160.436783 29.610294,158.899948 30.642620,158.473709 
	C36.655968,155.990845 42.776936,153.768616 49.093361,151.658096 
	C50.570614,152.839188 51.816055,153.820541 53.061501,154.801895 
z"/>
<path fill="#8A8A8B" opacity="1.000000" stroke="none" 
	d="
M35.157616,123.961906 
	C28.026237,126.634689 20.894857,129.307465 13.365696,131.656769 
	C12.685596,130.572678 12.403277,129.812073 12.120958,129.051483 
	C12.062533,127.968765 12.004109,126.886047 12.411287,125.404556 
	C14.794069,124.573875 16.754906,124.278778 18.620022,123.683693 
	C23.670931,122.072151 28.681194,120.333206 33.787033,118.931801 
	C34.190250,120.123108 34.514008,121.027397 34.935043,122.261887 
	C35.074085,123.048683 35.115849,123.505295 35.157616,123.961906 
z"/>
<path fill="#8A8A8B" opacity="1.000000" stroke="none" 
	d="
M48.861553,151.458359 
	C42.776936,153.768616 36.655968,155.990845 30.642620,158.473709 
	C29.610294,158.899948 29.036518,160.436783 28.096388,161.785675 
	C26.369383,160.663513 24.796911,159.216263 23.073954,157.487457 
	C23.659513,156.189102 24.180473,154.641266 25.166595,154.241837 
	C31.452686,151.695602 37.841251,149.402328 44.680817,147.326462 
	C46.397560,148.904221 47.629559,150.181290 48.861553,151.458359 
z"/>
<path fill="#8A8A8B" opacity="1.000000" stroke="none" 
	d="
M33.707577,118.644791 
	C28.681194,120.333206 23.670931,122.072151 18.620022,123.683693 
	C16.754906,124.278778 14.794069,124.573875 12.472933,125.001030 
	C12.027721,122.952011 11.986467,120.907761 12.008419,118.429398 
	C18.958025,115.999641 25.844423,114.003990 33.096230,112.380890 
	C33.543613,114.717216 33.625595,116.681007 33.707577,118.644791 
z"/>
<path  fill="#8A8A8B" opacity="1.000000" stroke="none" 
	d="
M12.068899,129.413361 
	C12.403277,129.812073 12.685596,130.572678 12.953803,131.650299 
	C12.939692,131.967346 12.539673,131.979568 12.339950,131.967285 
	C12.099097,131.228409 12.057968,130.501816 12.068899,129.413361 
z"/>
<path fill="#8A8A8B" opacity="1.000000" stroke="none" 
	d="
M12.975431,136.335861 
	C13.171898,136.557266 13.308146,137.106613 13.259047,137.817810 
	C13.020871,137.541046 12.968041,137.102432 12.975431,136.335861 
z"/>
<path fill="#8A8A8B" opacity="1.000000" stroke="none" 
	d="
M12.146168,134.294098 
	C12.414269,134.226868 12.616728,134.471161 12.850683,134.986847 
	C12.674699,134.991180 12.407480,134.773651 12.146168,134.294098 
z"/>
<path  fill="#3c2060" opacity="1.000000" stroke="none" 
	d="
M12.094053,47.269814 
	C12.456459,47.257095 12.516553,47.504215 12.224478,47.875351 
	C12.107689,47.968231 12.027121,47.498508 12.094053,47.269814 
z"/>
<path fill="#000000" opacity="1.000000" stroke="none" 
	d="
M94.029922,49.784256 
	C94.038689,49.467121 93.907791,49.225712 93.330513,48.548439 
	C93.103386,36.682842 93.182976,25.328846 93.262573,13.974850 
	C103.278236,19.924145 113.281647,25.894218 123.317200,31.809784 
	C126.243454,33.534702 129.261368,35.104137 132.557343,36.885525 
	C135.297562,38.687660 137.717697,40.349113 140.489288,42.015434 
	C143.975418,44.021294 147.110107,46.022282 150.678864,48.277962 
	C151.468750,48.849976 151.824524,49.167297 152.180313,49.484619 
	C152.180313,49.484619 152.264679,49.790680 152.473114,49.911667 
	C152.681549,50.032650 152.894852,50.030880 152.894852,50.030880 
	C153.055069,50.319904 153.215286,50.608932 153.739182,51.248558 
	C154.721619,52.107815 155.340363,52.616478 155.959122,53.125137 
	C155.962311,53.473923 156.112457,53.739662 156.640411,53.977463 
	C158.353638,56.307755 159.835999,58.582947 161.639709,60.996624 
	C162.737518,63.340153 163.513992,65.545197 164.607758,67.916702 
	C164.925064,68.083168 164.946655,68.017891 164.982849,68.257736 
	C165.070374,68.657425 165.121674,68.817261 165.172989,68.977097 
	C165.128036,69.144127 165.083099,69.311150 165.126373,70.095787 
	C165.862534,72.476585 166.510483,74.239777 167.158417,76.002968 
	C167.183823,80.063530 167.209213,84.124084 166.741669,88.707504 
	C155.272797,93.738693 144.296829,98.247032 132.830826,102.956665 
	C132.830826,99.934494 132.830826,97.464806 132.894958,94.610306 
	C132.260391,91.836227 131.561676,89.446983 130.934509,86.694565 
	C130.385834,84.877762 129.765610,83.424126 129.083771,81.614334 
	C128.408920,79.832153 127.795692,78.406120 127.105743,76.623680 
	C123.360504,71.799118 119.691986,67.330971 115.890274,62.542267 
	C111.841652,60.088234 107.926208,57.954758 103.866760,55.518581 
	C101.780128,54.195129 99.837509,53.174377 97.608833,51.990715 
	C96.225151,51.146622 95.127541,50.465439 94.029922,49.784256 
z"/>
<path  fill="#8A8A8B" opacity="1.000000" stroke="none" 
	d="
M93.138626,13.667168 
	C93.182976,25.328846 93.103386,36.682842 93.123383,48.493095 
	C92.896049,48.825443 92.569122,48.701534 92.076614,48.373711 
	C91.959068,36.602634 92.007111,25.035471 92.071358,12.954454 
	C92.396599,12.746895 92.705635,13.053190 93.138626,13.667168 
z"/>
<path fill="#000000" opacity="1.000000" stroke="none" 
	d="
M138.987305,145.472885 
	C137.143326,145.008713 135.285492,144.457794 133.193420,143.292252 
	C132.131226,140.563049 135.056976,137.323578 131.010132,136.173584 
	C128.588409,136.793381 126.166679,137.413177 123.048889,137.925842 
	C119.597153,135.913223 116.841484,134.007721 114.085815,132.102234 
	C120.956932,129.317673 127.828049,126.533127 134.874786,123.428375 
	C136.100250,122.742729 137.150085,122.377281 138.591522,122.493088 
	C139.026199,130.409073 139.069305,137.843796 139.112396,145.278534 
	C139.112411,145.278534 138.973450,145.386124 138.987305,145.472885 
z"/>
<path   fill="#8A8A8B" opacity="1.000000" stroke="none" 
	d="
M113.731384,132.061401 
	C116.841484,134.007721 119.597153,135.913223 122.664200,137.994553 
	C121.010902,139.228943 119.157379,140.700104 117.059769,141.265106 
	C111.761955,142.692169 108.816238,145.468124 109.677322,151.764404 
	C109.378922,152.223663 108.956772,152.003098 108.589867,152.016357 
	C103.107338,149.034439 97.991714,146.039246 93.250046,143.010132 
	C98.191254,141.086731 102.889114,139.450211 107.265327,137.190735 
	C109.175095,136.204697 110.425911,133.942413 111.975983,132.259735 
	C112.442978,132.180008 112.909973,132.100296 113.731384,132.061401 
z"/>
<path   fill="#8A8A8B" opacity="1.000000" stroke="none" 
	d="
M108.956772,152.003098 
	C108.956772,152.003098 109.378922,152.223663 109.616562,152.207397 
	C109.892799,163.520264 109.931404,174.849411 109.868805,186.653381 
	C109.301697,186.948044 108.835793,186.767883 108.604584,186.126953 
	C108.878433,174.445160 108.917603,163.224121 108.956772,152.003098 
z"/>
<path  fill="#8A8A8B" opacity="1.000000" stroke="none" 
	d="
M131.008057,136.591217 
	C135.056976,137.323578 132.131226,140.563049 132.889923,143.050568 
	C132.820648,143.423477 132.436172,143.731064 132.246994,143.888657 
	C131.707199,141.700439 131.356598,139.354645 131.008057,136.591217 
z"/>
<path   fill="#8A8A8B" opacity="1.000000" stroke="none" 
	d="
M169.307846,158.608994 
	C169.054581,148.621216 169.040863,138.305237 169.050934,127.528488 
	C169.383148,130.994385 169.922653,134.919571 169.947815,138.848053 
	C169.989288,145.324509 169.698257,151.803101 169.307846,158.608994 
z"/>
<path  fill="#2da676" opacity="1.000000" stroke="none" 
	d="
M160.843491,118.952347 
	C160.900040,121.999313 160.956589,125.046280 160.986877,128.548859 
	C154.245972,131.296082 147.531326,133.587662 140.427002,135.492065 
	C140.069244,132.075073 140.101166,129.045303 140.133102,126.015518 
	C146.514908,123.716370 152.896729,121.417236 159.854141,119.048798 
	C160.429749,118.979492 160.843491,118.952347 160.843491,118.952347 
z"/>
<path  fill="#2da676" opacity="1.000000" stroke="none" 
	d="
M140.094116,125.680588 
	C140.101166,129.045303 140.069244,132.075073 140.079514,135.558395 
	C139.945190,138.863495 139.768677,141.715073 139.352295,144.922577 
	C139.069305,137.843796 139.026199,130.409073 138.936737,122.507721 
	C139.278625,123.142624 139.666870,124.244141 140.094116,125.680588 
z"/>
<path  fill="#2da676" opacity="1.000000" stroke="none" 
	d="
M132.830826,94.995132 
	C132.830826,97.464806 132.830826,99.934494 132.830826,102.956665 
	C144.296829,98.247032 155.272797,93.738693 166.568176,89.065681 
	C167.319244,89.043465 168.061310,89.405663 168.138214,89.297028 
	C173.268997,82.048416 181.150269,80.445992 189.525787,79.008705 
	C189.962173,82.705360 189.985947,86.396202 189.979370,90.547607 
	C182.156708,93.577736 174.234604,95.813759 166.598541,98.784897 
	C149.642395,105.382423 132.839233,112.372543 115.941643,119.122307 
	C114.448120,119.718903 112.719498,119.726967 110.631523,119.561737 
	C110.221313,115.360657 110.279655,111.606216 110.798386,107.892693 
	C115.179825,106.786667 119.100723,105.639236 123.021950,104.492905 
	C127.306084,103.240486 132.504242,102.928024 131.394852,96.176323 
	C131.344437,95.869530 132.328552,95.392746 132.830826,94.995132 
z"/>
<path fill="#2da676" opacity="1.000000" stroke="none" 
	d="
M111.658813,132.167145 
	C110.425911,133.942413 109.175095,136.204697 107.265327,137.190735 
	C102.889114,139.450211 98.191254,141.086731 92.897141,142.991760 
	C89.701729,141.372299 87.233177,139.737289 85.096527,137.942123 
	C88.615692,136.444733 92.241135,135.673233 94.880638,133.628799 
	C98.274818,130.999832 104.720634,132.174911 105.375458,125.869408 
	C106.462410,126.699295 107.261749,127.388733 108.070129,128.371124 
	C108.682724,129.133224 109.286263,129.602386 109.889801,130.071548 
	C110.373749,130.739212 110.857697,131.406891 111.658813,132.167145 
z"/>
<path  fill="#2da676" opacity="1.000000" stroke="none" 
	d="
M109.962524,129.614990 
	C109.286263,129.602386 108.682724,129.133224 108.452812,128.153824 
	C108.939674,119.115700 109.052895,110.587830 109.440399,102.269890 
	C109.922440,104.270477 110.130219,106.061127 110.337997,107.851776 
	C110.279655,111.606216 110.221313,115.360657 110.239349,119.563759 
	C110.222229,123.061089 110.128746,126.109749 109.962524,129.614990 
z"/>
<path  fill="#2da676" opacity="1.000000" stroke="none" 
	d="
M167.351318,75.799652 
	C166.510483,74.239777 165.862534,72.476585 165.182800,70.349030 
	C166.012878,71.124809 166.874741,72.264954 167.880615,73.706345 
	C167.864471,74.537170 167.704330,75.066750 167.351318,75.799652 
z"/>
<path  fill="#2da676" opacity="1.000000" stroke="none" 
	d="
M160.870026,118.651901 
	C160.843491,118.952347 160.429749,118.979492 160.222809,118.988068 
	C160.166672,118.501266 160.317474,118.005905 160.654205,117.330719 
	C160.858917,117.551071 160.877747,117.951263 160.870026,118.651901 
z"/>
<path  fill="#2da676" opacity="1.000000" stroke="none" 
	d="
M152.257172,49.236603 
	C151.824524,49.167297 151.468750,48.849976 151.043213,48.306519 
	C151.146439,48.076057 151.319412,48.071732 151.751297,48.049355 
	C152.118149,48.350395 152.226074,48.669491 152.257172,49.236603 
z"/>
<path  fill="#2da676" opacity="1.000000" stroke="none" 
	d="
M165.359192,68.973221 
	C165.121674,68.817261 165.070374,68.657425 164.948608,68.254990 
	C165.157806,68.166275 165.414581,68.351837 165.783051,68.762794 
	C165.917664,68.956520 165.545395,68.969337 165.359192,68.973221 
z"/>
<path  fill="#2da676" opacity="1.000000" stroke="none" 
	d="
M155.973022,52.774323 
	C155.340363,52.616478 154.721619,52.107815 153.984619,51.316879 
	C154.337860,51.024563 154.809326,51.014523 155.633636,51.012970 
	C155.986618,51.488815 155.986771,51.956161 155.973022,52.774323 
z"/>
<path  fill="#2da676" opacity="1.000000" stroke="none" 
	d="
M153.095642,49.902061 
	C152.894852,50.030880 152.681549,50.032650 152.629395,49.939434 
	C152.792053,49.700970 153.006866,49.555725 153.567490,49.235100 
	C153.764069,49.346291 153.558441,49.584137 153.095642,49.902061 
z"/>
<path  fill="#2da676" opacity="1.000000" stroke="none" 
	d="
M33.787033,118.931801 
	C33.625595,116.681007 33.543613,114.717216 33.497490,112.314468 
	C33.695854,109.406296 33.996803,106.937225 33.999245,104.467865 
	C34.021198,82.273544 33.990711,60.079166 33.993038,37.118881 
	C34.040058,36.154530 34.069668,35.956104 34.099277,35.757679 
	C34.384476,35.996204 34.669678,36.234734 34.987663,37.204643 
	C34.959560,65.934586 34.898663,93.933136 34.837769,121.931694 
	C34.514008,121.027397 34.190250,120.123108 33.787033,118.931801 
z"/>
<path  fill="#8A8A8B" opacity="1.000000" stroke="none" 
	d="
M33.968330,35.578339 
	C34.069668,35.956104 34.040058,36.154530 33.953659,36.648117 
	C33.625526,36.514343 33.354179,36.085407 33.045128,35.398628 
	C33.318615,35.115799 33.595268,35.201870 33.968330,35.578339 
z"/>
<path fill="#000000" opacity="1.000000" stroke="none" 
	d="
M34.935043,122.261887 
	C34.898663,93.933136 34.959560,65.934586 35.095108,37.471531 
	C46.570000,43.691681 57.970242,50.376331 69.694191,57.631363 
	C70.055252,74.779716 70.092613,91.357681 70.077209,108.283646 
	C70.063072,109.097771 70.101700,109.563896 70.133881,110.293716 
	C70.400703,110.768906 70.673965,110.980415 70.963928,111.584412 
	C71.926094,115.000549 72.871559,118.024185 73.851593,121.406624 
	C74.227020,122.593063 74.567886,123.420708 74.921829,124.441017 
	C74.934914,124.633690 75.050873,125.002098 75.092171,125.334137 
	C76.123940,127.116898 77.114410,128.567627 78.082169,130.289352 
	C78.341393,130.776764 78.623306,130.993179 78.899994,131.176514 
	C78.894753,131.143448 78.857887,131.199677 78.976028,131.449554 
	C79.669052,132.150436 80.243950,132.601440 80.849686,133.385925 
	C81.217972,134.239044 81.555420,134.758713 82.021950,135.541183 
	C83.022224,136.570084 83.893425,137.336182 84.764618,138.102280 
	C87.233177,139.737289 89.701729,141.372299 92.523193,143.025681 
	C97.991714,146.039246 103.107338,149.034439 108.589867,152.016357 
	C108.917603,163.224121 108.878433,174.445160 108.472717,185.912476 
	C105.328781,184.766129 102.551392,183.373474 99.407272,181.933884 
	C94.481102,178.913071 90.042213,175.730942 85.337654,173.007751 
	C74.855316,166.940125 64.240219,161.101852 53.370358,154.986008 
	C51.816055,153.820541 50.570614,152.839188 49.093361,151.658096 
	C47.629559,150.181290 46.397560,148.904221 45.053467,147.315125 
	C43.688217,145.210205 42.435074,143.417313 41.046780,141.314896 
	C39.200985,135.477219 37.490341,129.949066 35.468658,124.191414 
	C35.115849,123.505295 35.074085,123.048683 34.935043,122.261887 
z"/>
<path  fill="#8A8A8B" opacity="1.000000" stroke="none" 
	d="
M71.059311,58.025738 
	C71.790817,58.337357 72.522331,58.648979 73.763779,59.277725 
	C75.793777,60.430809 77.313843,61.266766 79.039650,62.359474 
	C80.759842,63.451733 82.274284,64.287239 83.996536,65.392929 
	C86.813179,67.428696 89.422028,69.194275 92.146858,71.177811 
	C92.445831,71.685089 92.697838,71.889244 93.007759,72.008354 
	C92.996658,72.008507 92.999969,71.986748 93.000244,72.293816 
	C93.019127,72.804489 93.037743,73.008102 93.056076,73.427765 
	C93.055786,73.643829 92.895821,74.045258 92.653671,74.371246 
	C92.252823,78.807327 92.094124,82.917419 91.707581,87.328857 
	C90.798836,89.345039 90.550888,92.107674 89.364059,92.598068 
	C83.396065,95.064034 77.182884,96.936607 71.021530,98.548859 
	C71.011284,84.728683 71.035301,71.377213 71.059311,58.025738 
z"/>
<path  fill="#8A8A8B" opacity="1.000000" stroke="none" 
	d="
M78.833908,62.102722 
	C77.313843,61.266766 75.793777,60.430809 74.054291,59.349052 
	C80.416115,56.181541 86.997360,53.259830 93.804268,50.061188 
	C95.127541,50.465439 96.225151,51.146622 97.385483,52.229324 
	C91.243431,55.788139 85.038673,58.945431 78.833908,62.102722 
z"/>
<path  fill="#8A8A8B" opacity="1.000000" stroke="none" 
	d="
M70.935600,57.853294 
	C71.035301,71.377213 71.011284,84.728683 70.995239,98.995743 
	C70.974388,102.594948 70.945557,105.278549 70.719498,107.971390 
	C70.522278,107.980629 70.129967,107.935646 70.129967,107.935646 
	C70.092613,91.357681 70.055252,74.779716 70.044472,57.761978 
	C70.372528,57.329010 70.619476,57.448555 70.935600,57.853294 
z"/>
<path   fill="#2da676" opacity="1.000000" stroke="none" 
	d="
M116.023468,62.862823 
	C119.691986,67.330971 123.360504,71.799118 126.740761,76.684402 
	C119.268959,80.433685 112.085426,83.765831 104.575180,86.958694 
	C100.807182,82.267929 97.365913,77.716461 93.955643,72.872345 
	C93.984116,72.383514 93.981598,72.187347 94.351501,71.962173 
	C101.823776,68.909729 108.923622,65.886276 116.023468,62.862823 
z"/>
<path   fill="#2da676" opacity="1.000000" stroke="none" 
	d="
M115.890274,62.542267 
	C108.923622,65.886276 101.823776,68.909729 94.107254,71.957893 
	C93.490578,71.982605 92.999969,71.986748 92.999969,71.986748 
	C92.999969,71.986748 92.996658,72.008507 92.901291,71.783722 
	C92.614952,71.272057 92.356606,71.072365 92.030869,70.959862 
	C89.422028,69.194275 86.813179,67.428696 84.390854,65.344223 
	C90.389198,62.668045 96.219872,60.355118 101.991547,57.903328 
	C102.811485,57.555023 103.344803,56.532021 104.010773,55.821285 
	C107.926208,57.954758 111.841652,60.088234 115.890274,62.542267 
z"/>
<path  fill="#2da676" opacity="1.000000" stroke="none" 
	d="
M110.798386,107.892693 
	C110.130219,106.061127 109.922440,104.270477 109.371979,101.927895 
	C109.069931,100.914497 109.110565,100.453033 109.347054,99.823326 
	C111.151688,99.463066 112.872993,99.571396 114.346855,99.019249 
	C117.896149,97.689575 121.259750,95.853134 124.829079,94.591080 
	C128.528397,93.283058 130.893768,91.375740 130.221802,87.064209 
	C130.435547,87.065125 130.862976,87.057732 130.862976,87.057732 
	C131.561676,89.446983 132.260391,91.836227 132.894958,94.610306 
	C132.328552,95.392746 131.344437,95.869530 131.394852,96.176323 
	C132.504242,102.928024 127.306084,103.240486 123.021950,104.492905 
	C119.100723,105.639236 115.179825,106.786667 110.798386,107.892693 
z"/>
<path  fill="#2da676" opacity="1.000000" stroke="none" 
	d="
M103.866760,55.518581 
	C103.344803,56.532021 102.811485,57.555023 101.991547,57.903328 
	C96.219872,60.355118 90.389198,62.668045 84.183052,65.074036 
	C82.274284,64.287239 80.759842,63.451733 79.039650,62.359478 
	C85.038673,58.945431 91.243431,55.788139 97.671547,52.392235 
	C99.837509,53.174377 101.780128,54.195129 103.866760,55.518581 
z"/>
<path  fill="#2da676" opacity="1.000000" stroke="none" 
	d="
M104.901901,87.097984 
	C112.085426,83.765831 119.268959,80.433685 126.817474,77.040817 
	C127.795692,78.406120 128.408920,79.832153 128.682526,81.620667 
	C121.566483,84.466507 114.769920,86.898209 108.046799,89.518318 
	C107.419846,89.762650 107.257698,91.199661 106.569130,91.909164 
	C105.806305,90.189613 105.354103,88.643799 104.901901,87.097984 
z"/>
<path  fill="#2da676" opacity="1.000000" stroke="none" 
	d="
M106.879745,92.082901 
	C107.257698,91.199661 107.419846,89.762650 108.046799,89.518318 
	C114.769920,86.898209 121.566483,84.466507 128.744156,81.976822 
	C129.765610,83.424126 130.385834,84.877762 130.934509,86.694565 
	C130.862976,87.057732 130.435547,87.065125 130.143951,86.774002 
	C128.661728,86.449684 127.351967,86.073975 126.300079,86.439781 
	C120.228203,88.551308 114.217247,90.837997 108.001717,92.850296 
	C107.499893,92.437988 107.182022,92.240746 106.897606,92.041435 
	C106.931068,92.039375 106.879745,92.082901 106.879745,92.082901 
z"/>
<path fill="#000000" opacity="1.000000" stroke="none" 
	d="
M104.575180,86.958694 
	C105.354103,88.643799 105.806305,90.189613 106.569130,91.909164 
	C106.879745,92.082901 106.931068,92.039375 106.936966,92.398033 
	C107.353165,93.819267 107.763481,94.881836 108.102089,96.305336 
	C108.403992,97.774696 108.777596,98.883133 109.151199,99.991570 
	C109.110565,100.453033 109.069931,100.914497 109.097710,101.717957 
	C109.052895,110.587830 108.939674,119.115700 108.443771,127.860870 
	C107.261749,127.388733 106.462410,126.699295 105.255684,125.602730 
	C103.958138,124.458031 103.067986,123.720451 102.123169,122.618340 
	C100.393387,119.461563 98.718269,116.669312 97.055496,113.484001 
	C95.996094,108.724220 94.924339,104.357513 93.914078,99.655609 
	C93.601646,98.523285 93.227722,97.726151 92.902412,96.467209 
	C92.932625,88.685356 92.914223,81.365311 92.895821,74.045258 
	C92.895821,74.045258 93.055786,73.643829 93.269562,73.348709 
	C93.483345,73.053596 93.924644,73.164993 93.924644,73.164993 
	C97.365913,77.716461 100.807182,82.267929 104.575180,86.958694 
z"/>
<path fill="#8A8A8B" opacity="1.000000" stroke="none" 
	d="
M102.177826,122.982880 
	C103.067986,123.720451 103.958138,124.458031 104.968071,125.462280 
	C104.720634,132.174911 98.274818,130.999832 94.880638,133.628799 
	C92.241135,135.673233 88.615692,136.444733 85.096527,137.942123 
	C83.893425,137.336182 83.022224,136.570084 82.008835,135.213470 
	C81.517372,134.099442 81.168106,133.575958 80.818840,133.052460 
	C80.243950,132.601440 79.669052,132.150436 79.363045,131.382812 
	C80.869331,130.657684 82.117592,130.279114 83.342316,129.835571 
	C89.624146,127.560532 95.899933,125.268791 102.177826,122.982880 
z"/>
<path fill="#8A8A8B" opacity="1.000000" stroke="none" 
	d="
M93.852585,99.990799 
	C94.924339,104.357513 95.996094,108.724220 96.985062,113.840790 
	C96.436554,115.241463 96.112389,116.223213 95.483391,116.492241 
	C88.700172,119.393448 81.868958,122.182426 75.050873,125.002098 
	C75.050873,125.002098 74.934914,124.633690 74.939690,124.080032 
	C74.568649,122.700188 74.192833,121.874001 73.817024,121.047821 
	C72.871559,118.024185 71.926094,115.000549 70.870308,111.363815 
	C70.613800,110.458580 70.407242,110.218353 70.140320,110.030022 
	C70.101700,109.563896 70.063072,109.097771 70.077209,108.283646 
	C70.129967,107.935646 70.522278,107.980629 71.125153,107.978020 
	C79.102875,105.313873 86.477730,102.652336 93.852585,99.990799 
z"/>
<path fill="#8A8A8B" opacity="1.000000" stroke="none" 
	d="
M75.092171,125.334137 
	C81.868958,122.182426 88.700172,119.393448 95.483391,116.492241 
	C96.112389,116.223213 96.436554,115.241463 96.972702,114.233856 
	C98.718269,116.669312 100.393387,119.461563 102.123169,122.618347 
	C95.899933,125.268791 89.624146,127.560532 83.342316,129.835571 
	C82.117592,130.279114 80.869331,130.657684 79.244904,131.132935 
	C78.857887,131.199677 78.894753,131.143448 78.818222,130.944794 
	C78.598427,130.443161 78.386154,130.200562 78.104874,130.018356 
	C77.114410,128.567627 76.123940,127.116898 75.092171,125.334137 
z"/>
<path fill="#8A8A8B" opacity="1.000000" stroke="none" 
	d="
M73.851593,121.406624 
	C74.192833,121.874001 74.568649,122.700188 74.926605,123.887360 
	C74.567886,123.420708 74.227020,122.593063 73.851593,121.406624 
z"/>
<path fill="#8A8A8B" opacity="1.000000" stroke="none" 
	d="
M80.849686,133.385925 
	C81.168106,133.575958 81.517372,134.099442 81.879753,134.950653 
	C81.555420,134.758713 81.217972,134.239044 80.849686,133.385925 
z"/>
<path fill="#8A8A8B" opacity="1.000000" stroke="none" 
	d="
M70.133881,110.293716 
	C70.407242,110.218353 70.613800,110.458580 70.853615,110.971313 
	C70.673965,110.980415 70.400703,110.768906 70.133881,110.293716 
z"/>
<path fill="#8A8A8B" opacity="1.000000" stroke="none" 
	d="
M78.082169,130.289352 
	C78.386154,130.200562 78.598427,130.443161 78.823456,130.977875 
	C78.623306,130.993179 78.341393,130.776764 78.082169,130.289352 
z"/>
<path fill="#8A8A8B" opacity="1.000000" stroke="none" 
	d="
M93.914078,99.655609 
	C86.477730,102.652336 79.102875,105.313873 71.322372,107.968781 
	C70.945557,105.278549 70.974388,102.594948 71.029510,99.464447 
	C77.182884,96.936607 83.396065,95.064034 89.364059,92.598068 
	C90.550888,92.107674 90.798836,89.345039 91.728798,87.767929 
	C92.269844,90.913445 92.561821,93.921234 92.853798,96.929016 
	C93.227722,97.726151 93.601646,98.523285 93.914078,99.655609 
z"/>
<path fill="#8A8A8B" opacity="1.000000" stroke="none" 
	d="
M92.902412,96.467209 
	C92.561821,93.921234 92.269844,90.913445 91.956635,87.466591 
	C92.094124,82.917419 92.252823,78.807327 92.653671,74.371246 
	C92.914223,81.365311 92.932625,88.685356 92.902412,96.467209 
z"/>
<path fill="#8A8A8B" opacity="1.000000" stroke="none" 
	d="
M93.955643,72.872345 
	C93.924644,73.164993 93.483345,73.053596 93.269852,73.132652 
	C93.037743,73.008102 93.019127,72.804489 93.000244,72.293816 
	C92.999969,71.986748 93.490578,71.982605 93.734833,71.986893 
	C93.981598,72.187347 93.984116,72.383514 93.955643,72.872345 
z"/>
<path fill="#2da676" opacity="1.000000" stroke="none" 
	d="
M92.146858,71.177811 
	C92.356606,71.072365 92.614952,71.272057 92.912384,71.783569 
	C92.697838,71.889244 92.445831,71.685089 92.146858,71.177811 
z"/>
<path  fill="#2da676" opacity="1.000000" stroke="none" 
	d="
M109.347054,99.823326 
	C108.777596,98.883133 108.403992,97.774696 108.269142,96.108612 
	C108.400490,94.722427 108.293076,93.893898 108.185661,93.065369 
	C114.217247,90.837997 120.228203,88.551308 126.300079,86.439781 
	C127.351967,86.073975 128.661728,86.449684 129.930206,86.773087 
	C130.893768,91.375740 128.528397,93.283058 124.829079,94.591080 
	C121.259750,95.853134 117.896149,97.689575 114.346855,99.019249 
	C112.872993,99.571396 111.151688,99.463066 109.347054,99.823326 
z"/>
<path  fill="#2da676" opacity="1.000000" stroke="none" 
	d="
M108.001717,92.850304 
	C108.293076,93.893898 108.400490,94.722427 108.340851,95.747681 
	C107.763481,94.881836 107.353165,93.819267 106.903503,92.400093 
	C107.182022,92.240746 107.499893,92.437988 108.001717,92.850304 
z"/>
</svg>