<?xml version="1.0" encoding="utf-8"?>
<!-- Generator: Adobe Illustrator 24.1.2, SVG Export Plug-In . SVG Version: 6.00 Build 0)  -->
<svg version="1.1" id="Layer_1" xmlns="http://www.w3.org/2000/svg" xmlns:xlink="http://www.w3.org/1999/xlink" x="0px" y="0px"
	 viewBox="0 0 26 26" style="enable-background:new 0 0 26 26;" xml:space="preserve">
<style type="text/css">
	.st0{fill-rule:evenodd;clip-rule:evenodd;fill:#fff;}
</style>
<path class="st0" d="M10.555,21.109C4.726,21.109,0,16.384,0,10.555C0,4.726,4.726,0,10.555,0c5.829,0,10.555,4.726,10.555,10.555
	c0,2.439-0.827,4.685-2.217,6.472L26,24.134L24.134,26l-7.107-7.108C15.239,20.282,12.994,21.109,10.555,21.109z M18.471,10.555
	c0,4.372-3.544,7.916-7.916,7.916c-4.372,0-7.916-3.544-7.916-7.916s3.544-7.916,7.916-7.916
	C14.927,2.639,18.471,6.183,18.471,10.555z"/>
</svg>
